<svg width="130" height="65" viewBox="0 0 130 65" fill="none" xmlns="http://www.w3.org/2000/svg">
<path fill-rule="evenodd" clip-rule="evenodd" d="M65.8588 65C71.1195 65 74.8625 63.3801 76.4812 61.9628V51.0281C75.2673 51.9393 72.8393 53.0529 69.7031 53.0529C67.4774 53.0529 65.8588 52.5469 64.6447 51.433C63.6331 50.4206 63.1273 48.6993 63.1273 46.3708V0H49.7733V13.6683H76.4812V26.6278H49.7733V49.6106C49.7733 54.2681 51.1897 58.0141 53.7188 60.6464C56.5515 63.4812 60.6994 65 65.8588 65ZM106.733 64.9999C114.22 64.9999 119.986 62.2662 123.932 58.4189C127.068 55.3815 128.99 51.8379 130.002 48.193L118.165 44.2445C117.659 46.0669 116.648 47.9906 115.029 49.5093C113.107 51.3317 110.477 52.6479 106.733 52.6479C103.294 52.6479 100.056 51.3317 97.7295 49.003C95.4028 46.5731 93.9865 43.0295 93.9865 38.5746C93.9865 34.0187 95.4028 30.5764 97.7295 28.1463C100.056 25.8178 103.192 24.6026 106.632 24.6026C110.274 24.6026 112.803 25.8178 114.624 27.6401C116.142 29.1587 117.052 31.0824 117.659 33.0061L129.698 28.9563C128.788 25.4125 126.865 21.8691 124.033 18.933C119.986 14.9844 114.119 12.1494 106.329 12.1494C99.1459 12.1494 92.6713 14.8831 88.0177 19.5404C83.3639 24.299 80.5314 30.88 80.5314 38.5746C80.5314 46.2693 83.4651 52.8503 88.22 57.6089C92.8736 62.2662 99.4494 64.9999 106.733 64.9999ZM21.3461 64.9999C28.1242 64.9999 33.6884 62.8737 37.3304 59.3301C40.0619 56.5963 41.6805 52.9516 41.6805 48.6992C41.6805 44.8519 40.2642 41.4096 37.6339 38.7771C35.0035 36.1448 31.2604 34.2211 26.5056 33.3098L18.7157 31.7912C15.4785 31.1837 13.6575 29.5638 13.6575 27.3364C13.6575 24.4001 16.4901 22.3753 21.0426 22.3753C23.8752 22.3753 26.3033 23.2866 27.9219 24.9065C28.9335 26.0202 29.6418 27.4377 29.8441 29.0576L41.0735 26.5264C40.77 23.2866 39.2526 20.4516 36.9257 18.123C33.2836 14.478 27.6184 12.1494 20.9414 12.1494C14.7704 12.1494 9.61077 14.1744 6.06998 17.4142C3.03499 20.249 1.31512 24.0965 1.31512 28.3488C1.31512 32.0948 2.52918 35.2335 4.95714 37.6635C7.3851 40.0934 10.9261 41.9158 15.5797 43.0295L23.2683 44.8519C27.1126 45.7631 28.8323 47.1806 28.8323 49.7118C28.8323 52.8503 25.9998 54.6728 21.3461 54.6728C18.0076 54.6728 15.2762 53.5591 13.5563 51.7368C12.3422 50.5217 11.6341 48.9017 11.5329 47.0793L0 49.6105C0.303516 53.0528 1.92215 56.0903 4.35011 58.5202C8.19442 62.57 14.3656 64.9999 21.3461 64.9999Z" fill="white"/>
</svg>
